<svg xmlns="http://www.w3.org/2000/svg" class="d3-component" style="font-family:sans-serif;font-size:1.3rem" viewBox="0 0 2500 1450"><g transform="translate(120,0)"><path fill="none" stroke="#ccc" stroke-width="3px" d="M 240 1015
              C 120 1015,
                120 1044,
                0 1044"></path><path fill="none" stroke="#ccc" stroke-width="3px" d="M 240 1073
              C 120 1073,
                120 1044,
                0 1044"></path><path fill="none" stroke="#ccc" stroke-width="3px" d="M 480 638
              C 360 638,
                360 1015,
                240 1015"></path><path fill="none" stroke="#ccc" stroke-width="3px" d="M 480 928
              C 360 928,
                360 1015,
                240 1015"></path><path fill="none" stroke="#ccc" stroke-width="3px" d="M 480 1160
              C 360 1160,
                360 1015,
                240 1015"></path><path fill="none" stroke="#ccc" stroke-width="3px" d="M 480 1218
              C 360 1218,
                360 1015,
                240 1015"></path><path fill="none" stroke="#ccc" stroke-width="3px" d="M 480 1276
              C 360 1276,
                360 1015,
                240 1015"></path><path fill="none" stroke="#ccc" stroke-width="3px" d="M 480 1334
              C 360 1334,
                360 1015,
                240 1015"></path><path fill="none" stroke="#ccc" stroke-width="3px" d="M 480 1392
              C 360 1392,
                360 1015,
                240 1015"></path><path fill="none" stroke="#ccc" stroke-width="3px" d="M 720 493
              C 600 493,
                600 638,
                480 638"></path><path fill="none" stroke="#ccc" stroke-width="3px" d="M 720 551
              C 600 551,
                600 638,
                480 638"></path><path fill="none" stroke="#ccc" stroke-width="3px" d="M 720 609
              C 600 609,
                600 638,
                480 638"></path><path fill="none" stroke="#ccc" stroke-width="3px" d="M 720 667
              C 600 667,
                600 638,
                480 638"></path><path fill="none" stroke="#ccc" stroke-width="3px" d="M 720 725
              C 600 725,
                600 638,
                480 638"></path><path fill="none" stroke="#ccc" stroke-width="3px" d="M 720 783
              C 600 783,
                600 638,
                480 638"></path><path fill="none" stroke="#ccc" stroke-width="3px" d="M 720 899
              C 600 899,
                600 928,
                480 928"></path><path fill="none" stroke="#ccc" stroke-width="3px" d="M 720 957
              C 600 957,
                600 928,
                480 928"></path><path fill="none" stroke="#ccc" stroke-width="3px" d="M 720 1073
              C 600 1073,
                600 1160,
                480 1160"></path><path fill="none" stroke="#ccc" stroke-width="3px" d="M 720 1131
              C 600 1131,
                600 1160,
                480 1160"></path><path fill="none" stroke="#ccc" stroke-width="3px" d="M 720 1189
              C 600 1189,
                600 1160,
                480 1160"></path><path fill="none" stroke="#ccc" stroke-width="3px" d="M 720 1247
              C 600 1247,
                600 1160,
                480 1160"></path><path fill="none" stroke="#ccc" stroke-width="3px" d="M 960 464
              C 840 464,
                840 493,
                720 493"></path><path fill="none" stroke="#ccc" stroke-width="3px" d="M 960 522
              C 840 522,
                840 493,
                720 493"></path><path fill="none" stroke="#ccc" stroke-width="3px" d="M 960 783
              C 840 783,
                840 783,
                720 783"></path><path fill="none" stroke="#ccc" stroke-width="3px" d="M 1200 203
              C 1080 203,
                1080 522,
                960 522"></path><path fill="none" stroke="#ccc" stroke-width="3px" d="M 1200 319
              C 1080 319,
                1080 522,
                960 522"></path><path fill="none" stroke="#ccc" stroke-width="3px" d="M 1200 522
              C 1080 522,
                1080 522,
                960 522"></path><path fill="none" stroke="#ccc" stroke-width="3px" d="M 1200 623.5
              C 1080 623.5,
                1080 522,
                960 522"></path><path fill="none" stroke="#ccc" stroke-width="3px" d="M 1200 725
              C 1080 725,
                1080 522,
                960 522"></path><path fill="none" stroke="#ccc" stroke-width="3px" d="M 1200 783
              C 1080 783,
                1080 522,
                960 522"></path><path fill="none" stroke="#ccc" stroke-width="3px" d="M 1200 841
              C 1080 841,
                1080 522,
                960 522"></path><path fill="none" stroke="#ccc" stroke-width="3px" d="M 1440 203
              C 1320 203,
                1320 203,
                1200 203"></path><path fill="none" stroke="#ccc" stroke-width="3px" d="M 1440 319
              C 1320 319,
                1320 319,
                1200 319"></path><path fill="none" stroke="#ccc" stroke-width="3px" d="M 1440 435
              C 1320 435,
                1320 522,
                1200 522"></path><path fill="none" stroke="#ccc" stroke-width="3px" d="M 1440 493
              C 1320 493,
                1320 522,
                1200 522"></path><path fill="none" stroke="#ccc" stroke-width="3px" d="M 1440 551
              C 1320 551,
                1320 522,
                1200 522"></path><path fill="none" stroke="#ccc" stroke-width="3px" d="M 1440 609
              C 1320 609,
                1320 522,
                1200 522"></path><path fill="none" stroke="#ccc" stroke-width="3px" d="M 1440 725
              C 1320 725,
                1320 725,
                1200 725"></path><path fill="none" stroke="#ccc" stroke-width="3px" d="M 1680 145
              C 1560 145,
                1560 203,
                1440 203"></path><path fill="none" stroke="#ccc" stroke-width="3px" d="M 1680 203
              C 1560 203,
                1560 203,
                1440 203"></path><path fill="none" stroke="#ccc" stroke-width="3px" d="M 1680 261
              C 1560 261,
                1560 203,
                1440 203"></path><path fill="none" stroke="#ccc" stroke-width="3px" d="M 1680 435
              C 1560 435,
                1560 435,
                1440 435"></path><path fill="none" stroke="#ccc" stroke-width="3px" d="M 1680 551
              C 1560 551,
                1560 551,
                1440 551"></path><path fill="none" stroke="#ccc" stroke-width="3px" d="M 1920 58
              C 1800 58,
                1800 145,
                1680 145"></path><path fill="none" stroke="#ccc" stroke-width="3px" d="M 1920 116
              C 1800 116,
                1800 145,
                1680 145"></path><path fill="none" stroke="#ccc" stroke-width="3px" d="M 1920 174
              C 1800 174,
                1800 145,
                1680 145"></path><path fill="none" stroke="#ccc" stroke-width="3px" d="M 1920 232
              C 1800 232,
                1800 145,
                1680 145"></path><path fill="none" stroke="#ccc" stroke-width="3px" d="M 1920 551
              C 1800 551,
                1800 551,
                1680 551"></path><path fill="none" stroke="#ccc" stroke-width="3px" d="M 2160 58
              C 2040 58,
                2040 58,
                1920 58"></path><g class="node" transform="translate(0,1044)"><circle class="node" r="15" style="fill: rgb(215, 215, 215); stroke: rgb(186, 186, 186);"></circle><text dy=".35em" x="-20" text-anchor="end" fill="#777" font-weight="700">19A (B)</text></g><g class="node" transform="translate(240,1015)"><circle class="node" r="15" style="fill: rgb(198, 198, 198); stroke: rgb(171, 171, 171);"></circle><text dy=".35em" x="-20" text-anchor="end" fill="#777" font-weight="700">20A (B.1)</text></g><g class="node" transform="translate(240,1073)"><circle class="node" r="15" style="fill: rgb(206, 206, 206); stroke: rgb(179, 179, 179);"></circle><text dy=".35em" x="20" text-anchor="start" fill="#777" font-weight="700">19B (A)</text></g><g class="node" transform="translate(480,638)"><circle class="node" r="15" style="fill: rgb(189, 189, 189); stroke: rgb(164, 164, 164);"></circle><text dy=".35em" x="-20" text-anchor="end" fill="#777" font-weight="700">20B (B.1.1)</text></g><g class="node" transform="translate(480,928)"><circle class="node" r="15" style="fill: rgb(69, 64, 212); stroke: rgb(60, 56, 183);"></circle><text dy=".35em" x="-20" text-anchor="end" fill="#777" font-weight="700">21A (Delta, B.1.617.2)</text></g><g class="node" transform="translate(480,1160)"><circle class="node" r="15" style="fill: rgb(180, 180, 180); stroke: rgb(156, 156, 156);"></circle><text dy=".35em" x="-20" text-anchor="end" fill="#777" font-weight="700">20C</text></g><g class="node" transform="translate(480,1218)"><circle class="node" r="15" style="fill: rgb(103, 183, 171); stroke: rgb(89, 158, 148);"></circle><text dy=".35em" x="20" text-anchor="start" fill="#777" font-weight="700">21H (Mu, B.1.621)</text></g><g class="node" transform="translate(480,1276)"><circle class="node" r="15" style="fill: rgb(77, 143, 214); stroke: rgb(67, 124, 185);"></circle><text dy=".35em" x="20" text-anchor="start" fill="#777" font-weight="700">21D (Eta, B.1.525)</text></g><g class="node" transform="translate(480,1334)"><circle class="node" r="15" style="fill: rgb(70, 114, 222); stroke: rgb(61, 99, 193);"></circle><text dy=".35em" x="20" text-anchor="start" fill="#777" font-weight="700">21B (Kappa, B.1.617.1)</text></g><g class="node" transform="translate(480,1392)"><circle class="node" r="15" style="fill: rgb(163, 163, 163); stroke: rgb(142, 142, 142);"></circle><text dy=".35em" x="20" text-anchor="start" fill="#777" font-weight="700">20E (EU1, B.1.177)</text></g><g class="node" transform="translate(720,493)"><circle class="node" r="15" style="fill: rgb(135, 198, 127); stroke: rgb(117, 171, 110);"></circle><text dy=".35em" x="-20" text-anchor="end" fill="#777" font-weight="700">21M (Omicron, B.1.1.529)</text></g><g class="node" transform="translate(720,551)"><circle class="node" r="15" style="fill: rgb(83, 158, 204); stroke: rgb(72, 137, 177);"></circle><text dy=".35em" x="20" text-anchor="start" fill="#777" font-weight="700">21E (Theta, P.3)</text></g><g class="node" transform="translate(720,609)"><circle class="node" r="15" style="fill: rgb(76, 49, 199); stroke: rgb(66, 43, 172);"></circle><text dy=".35em" x="20" text-anchor="start" fill="#777" font-weight="700">20J (Gamma, P.1)</text></g><g class="node" transform="translate(720,667)"><circle class="node" r="15" style="fill: rgb(84, 35, 186); stroke: rgb(73, 31, 161);"></circle><text dy=".35em" x="20" text-anchor="start" fill="#777" font-weight="700">20I (Alpha, B.1.1.7)</text></g><g class="node" transform="translate(720,725)"><circle class="node" r="15" style="fill: rgb(155, 155, 155); stroke: rgb(134, 134, 134);"></circle><text dy=".35em" x="20" text-anchor="start" fill="#777" font-weight="700">20F (D.2)</text></g><g class="node" transform="translate(720,783)"><circle class="node" r="15" style="fill: rgb(172, 172, 172); stroke: rgb(149, 149, 149);"></circle><text dy=".35em" x="-20" text-anchor="end" fill="#777" font-weight="700">20D (B.1.1.1)</text></g><g class="node" transform="translate(720,899)"><circle class="node" r="15" style="fill: rgb(68, 81, 217); stroke: rgb(59, 70, 188);"></circle><text dy=".35em" x="20" text-anchor="start" fill="#777" font-weight="700">21I (Delta)</text></g><g class="node" transform="translate(720,957)"><circle class="node" r="15" style="fill: rgb(67, 100, 223); stroke: rgb(58, 87, 194);"></circle><text dy=".35em" x="20" text-anchor="start" fill="#777" font-weight="700">21J (Delta)</text></g><g class="node" transform="translate(720,1073)"><circle class="node" r="15" style="fill: rgb(88, 166, 195); stroke: rgb(76, 144, 169);"></circle><text dy=".35em" x="20" text-anchor="start" fill="#777" font-weight="700">21F (Iota, B.1.526)</text></g><g class="node" transform="translate(720,1131)"><circle class="node" r="15" style="fill: rgb(73, 132, 220); stroke: rgb(63, 115, 191);"></circle><text dy=".35em" x="20" text-anchor="start" fill="#777" font-weight="700">21C (Epsilon, B.1.427/429)</text></g><g class="node" transform="translate(720,1189)"><circle class="node" r="15" style="fill: rgb(101, 31, 169); stroke: rgb(88, 27, 146);"></circle><text dy=".35em" x="20" text-anchor="start" fill="#777" font-weight="700">20H (Beta, B.1.351)</text></g><g class="node" transform="translate(720,1247)"><circle class="node" r="15" style="fill: rgb(146, 146, 146); stroke: rgb(127, 127, 127);"></circle><text dy=".35em" x="20" text-anchor="start" fill="#777" font-weight="700">20G (B.1.2)</text></g><g class="node" transform="translate(960,464)"><circle class="node" r="15" style="fill: rgb(114, 190, 154); stroke: rgb(99, 165, 133);"></circle><text dy=".35em" x="20" text-anchor="start" fill="#777" font-weight="700">21K (Omicron, BA.1)</text></g><g class="node" transform="translate(960,522)"><circle class="node" r="15" style="fill: rgb(121, 193, 144); stroke: rgb(105, 168, 125);"></circle><text dy=".35em" x="-20" text-anchor="end" fill="#777" font-weight="700">21L (Omicron, BA.2)</text></g><g class="node" transform="translate(960,783)"><circle class="node" r="15" style="fill: rgb(97, 177, 180); stroke: rgb(84, 154, 156);"></circle><text dy=".35em" x="20" text-anchor="start" fill="#777" font-weight="700">21G (Lambda, C.37)</text></g><g class="node" transform="translate(1200,203)"><circle class="node" r="15" style="fill: rgb(243, 98, 47); stroke: rgb(210, 85, 41);"></circle><text dy=".35em" x="-20" text-anchor="end" fill="#777" font-weight="700">23I (BA.2.86)</text></g><g class="node" transform="translate(1200,319)"><circle class="node" r="15" style="fill: rgb(184, 203, 87); stroke: rgb(159, 176, 75);"></circle><text dy=".35em" x="-20" text-anchor="end" fill="#777" font-weight="700">22D (BA.2.75)</text></g><g class="node" transform="translate(1200,522)"><circle class="node" r="15" style="fill: rgb(208, 200, 75); stroke: rgb(181, 173, 65);"></circle><text dy=".35em" x="-20" text-anchor="end" fill="#777" font-weight="700">22F (XBB)</text></g><g class="node" transform="translate(1200,623.5)"><circle class="node" r="15" style="fill: rgb(166, 204, 98); stroke: rgb(144, 177, 85);"></circle><text dy=".35em" x="20" text-anchor="start" fill="#777" font-weight="700">22C (BA.2.12.1)</text></g><g class="node" transform="translate(1200,725)"><circle class="node" r="15" style="fill: rgb(159, 203, 104); stroke: rgb(138, 176, 90);"></circle><text dy=".35em" x="-20" text-anchor="end" fill="#777" font-weight="700">22B (BA.5)</text></g><g class="node" transform="translate(1200,783)"><circle class="node" r="15" style="fill: rgb(111, 188, 158); stroke: rgb(96, 163, 137);"></circle><text dy=".35em" x="20" text-anchor="start" fill="#777" font-weight="700">22A (BA.4)</text></g><g class="node" transform="translate(1200,841)"><circle class="node" r="15" style="fill: rgb(243, 168, 61); stroke: rgb(210, 145, 53);"></circle><text dy=".35em" x="20" text-anchor="start" fill="#777" font-weight="700">24D (XDV.1)</text></g><g class="node" transform="translate(1440,203)"><circle class="node" r="15" style="fill: rgb(247, 121, 52); stroke: rgb(214, 105, 45);"></circle><text dy=".35em" x="-20" text-anchor="end" fill="#777" font-weight="700">24A (JN.1)</text></g><g class="node" transform="translate(1440,319)"><circle class="node" r="15" style="fill: rgb(233, 187, 67); stroke: rgb(202, 162, 58);"></circle><text dy=".35em" x="20" text-anchor="start" fill="#777" font-weight="700">23C (CH.1.1)</text></g><g class="node" transform="translate(1440,435)"><circle class="node" r="15" style="fill: rgb(215, 199, 73); stroke: rgb(186, 172, 63);"></circle><text dy=".35em" x="-20" text-anchor="end" fill="#777" font-weight="700">23A (XBB.1.5)</text></g><g class="node" transform="translate(1440,493)"><circle class="node" r="15" style="fill: rgb(229, 190, 68); stroke: rgb(198, 165, 59);"></circle><text dy=".35em" x="20" text-anchor="start" fill="#777" font-weight="700">23B (XBB.1.16)</text></g><g class="node" transform="translate(1440,551)"><circle class="node" r="15" style="fill: rgb(242, 171, 62); stroke: rgb(210, 148, 54);"></circle><text dy=".35em" x="-20" text-anchor="end" fill="#777" font-weight="700">23D (XBB.1.9)</text></g><g class="node" transform="translate(1440,609)"><circle class="node" r="15" style="fill: rgb(244, 165, 61); stroke: rgb(211, 143, 53);"></circle><text dy=".35em" x="20" text-anchor="start" fill="#777" font-weight="700">23E (XBB.2.3)</text></g><g class="node" transform="translate(1440,725)"><circle class="node" r="15" style="fill: rgb(191, 203, 83); stroke: rgb(166, 176, 72);"></circle><text dy=".35em" x="20" text-anchor="start" fill="#777" font-weight="700">22E (BQ.1)</text></g><g class="node" transform="translate(1680,145)"><circle class="node" r="15" style="fill: rgb(243, 168, 61); stroke: rgb(210, 145, 53);"></circle><text dy=".35em" x="-20" text-anchor="end" fill="#777" font-weight="700">24B (JN.1.11.1)</text></g><g class="node" transform="translate(1680,203)"><circle class="node" r="15" style="fill: rgb(245, 105, 49); stroke: rgb(212, 91, 43);"></circle><text dy=".35em" x="20" text-anchor="start" fill="#777" font-weight="700">24H (LF.7)</text></g><g class="node" transform="translate(1680,261)"><circle class="node" r="15" style="fill: rgb(242, 90, 46); stroke: rgb(210, 78, 40);"></circle><text dy=".35em" x="20" text-anchor="start" fill="#777" font-weight="700">24I (MV.1)</text></g><g class="node" transform="translate(1680,435)"><circle class="node" r="15" style="fill: rgb(243, 98, 47); stroke: rgb(210, 85, 41);"></circle><text dy=".35em" x="20" text-anchor="start" fill="#777" font-weight="700">23G (XBB.1.5.70)</text></g><g class="node" transform="translate(1680,551)"><circle class="node" r="15" style="fill: rgb(247, 143, 56); stroke: rgb(214, 124, 48);"></circle><text dy=".35em" x="-20" text-anchor="end" fill="#777" font-weight="700">23F (EG.5.1)</text></g><g class="node" transform="translate(1920,58)"><circle class="node" r="15" style="fill: rgb(247, 159, 59); stroke: rgb(214, 138, 51);"></circle><text dy=".35em" x="-20" text-anchor="end" fill="#777" font-weight="700">24C (KP.3)</text></g><g class="node" transform="translate(1920,116)"><circle class="node" r="15" style="fill: rgb(247, 134, 55); stroke: rgb(214, 116, 47);"></circle><text dy=".35em" x="20" text-anchor="start" fill="#777" font-weight="700">24G (KP.2.3)</text></g><g class="node" transform="translate(1920,174)"><circle class="node" r="15" style="fill: rgb(247, 121, 52); stroke: rgb(214, 105, 45);"></circle><text dy=".35em" x="20" text-anchor="start" fill="#777" font-weight="700">24F (XEC)</text></g><g class="node" transform="translate(1920,232)"><circle class="node" r="15" style="fill: rgb(238, 64, 41); stroke: rgb(207, 56, 35);"></circle><text dy=".35em" x="20" text-anchor="start" fill="#777" font-weight="700">25A (LP.8.1)</text></g><g class="node" transform="translate(1920,551)"><circle class="node" r="15" style="fill: rgb(245, 106, 49); stroke: rgb(212, 92, 43);"></circle><text dy=".35em" x="20" text-anchor="start" fill="#777" font-weight="700">23H (HK.3)</text></g><g class="node" transform="translate(2160,58)"><circle class="node" r="15" style="fill: rgb(247, 147, 57); stroke: rgb(214, 128, 49);"></circle><text dy=".35em" x="20" text-anchor="start" fill="#777" font-weight="700">24E (KP.3.1.1)</text></g></g></svg>