<svg xmlns="http://www.w3.org/2000/svg" class="d3-component" style="font-family:sans-serif;font-size:1.25rem" viewBox="-70 0 1330 550" width="1500" height="600"><path fill="none" stroke="#ccc" stroke-width="3px" d="M 180 282.85714285714283
              C 90 282.85714285714283,
                90 298.57142857142856,
                0 298.57142857142856"></path><path fill="none" stroke="#ccc" stroke-width="3px" d="M 180 314.2857142857143
              C 90 314.2857142857143,
                90 298.57142857142856,
                0 298.57142857142856"></path><path fill="none" stroke="#ccc" stroke-width="3px" d="M 360 110
              C 270 110,
                270 314.2857142857143,
                180 314.2857142857143"></path><path fill="none" stroke="#ccc" stroke-width="3px" d="M 360 298.57142857142856
              C 270 298.57142857142856,
                270 314.2857142857143,
                180 314.2857142857143"></path><path fill="none" stroke="#ccc" stroke-width="3px" d="M 360 361.4285714285714
              C 270 361.4285714285714,
                270 314.2857142857143,
                180 314.2857142857143"></path><path fill="none" stroke="#ccc" stroke-width="3px" d="M 360 424.2857142857143
              C 270 424.2857142857143,
                270 314.2857142857143,
                180 314.2857142857143"></path><path fill="none" stroke="#ccc" stroke-width="3px" d="M 360 455.71428571428567
              C 270 455.71428571428567,
                270 314.2857142857143,
                180 314.2857142857143"></path><path fill="none" stroke="#ccc" stroke-width="3px" d="M 360 487.1428571428571
              C 270 487.1428571428571,
                270 314.2857142857143,
                180 314.2857142857143"></path><path fill="none" stroke="#ccc" stroke-width="3px" d="M 360 518.5714285714286
              C 270 518.5714285714286,
                270 314.2857142857143,
                180 314.2857142857143"></path><path fill="none" stroke="#ccc" stroke-width="3px" d="M 540 31.428571428571427
              C 450 31.428571428571427,
                450 110,
                360 110"></path><path fill="none" stroke="#ccc" stroke-width="3px" d="M 540 62.857142857142854
              C 450 62.857142857142854,
                450 110,
                360 110"></path><path fill="none" stroke="#ccc" stroke-width="3px" d="M 540 94.28571428571428
              C 450 94.28571428571428,
                450 110,
                360 110"></path><path fill="none" stroke="#ccc" stroke-width="3px" d="M 540 125.71428571428571
              C 450 125.71428571428571,
                450 110,
                360 110"></path><path fill="none" stroke="#ccc" stroke-width="3px" d="M 540 157.14285714285714
              C 450 157.14285714285714,
                450 110,
                360 110"></path><path fill="none" stroke="#ccc" stroke-width="3px" d="M 540 188.57142857142856
              C 450 188.57142857142856,
                450 110,
                360 110"></path><path fill="none" stroke="#ccc" stroke-width="3px" d="M 540 251.42857142857142
              C 450 251.42857142857142,
                450 298.57142857142856,
                360 298.57142857142856"></path><path fill="none" stroke="#ccc" stroke-width="3px" d="M 540 282.85714285714283
              C 450 282.85714285714283,
                450 298.57142857142856,
                360 298.57142857142856"></path><path fill="none" stroke="#ccc" stroke-width="3px" d="M 540 314.2857142857143
              C 450 314.2857142857143,
                450 298.57142857142856,
                360 298.57142857142856"></path><path fill="none" stroke="#ccc" stroke-width="3px" d="M 540 345.7142857142857
              C 450 345.7142857142857,
                450 298.57142857142856,
                360 298.57142857142856"></path><path fill="none" stroke="#ccc" stroke-width="3px" d="M 540 408.57142857142856
              C 450 408.57142857142856,
                450 424.2857142857143,
                360 424.2857142857143"></path><path fill="none" stroke="#ccc" stroke-width="3px" d="M 540 440
              C 450 440,
                450 424.2857142857143,
                360 424.2857142857143"></path><path fill="none" stroke="#ccc" stroke-width="3px" d="M 720 31.428571428571427
              C 630 31.428571428571427,
                630 31.428571428571427,
                540 31.428571428571427"></path><path fill="none" stroke="#ccc" stroke-width="3px" d="M 720 172.85714285714286
              C 630 172.85714285714286,
                630 188.57142857142856,
                540 188.57142857142856"></path><path fill="none" stroke="#ccc" stroke-width="3px" d="M 720 204.28571428571428
              C 630 204.28571428571428,
                630 188.57142857142856,
                540 188.57142857142856"></path><g transform="translate(50,50)"></g><g class="node" transform="translate(0,298.57142857142856)"><circle class="node" r="15" cursor="pointer" style="fill: rgb(255, 121, 147); stroke: rgb(230, 105, 128);"></circle><text dy=".35em" x="-20" text-anchor="end" fill="#777" font-weight="700">19A</text></g><g class="node" transform="translate(180,282.85714285714283)"><circle class="node" r="15" cursor="pointer" style="fill: rgb(255, 125, 102); stroke: rgb(230, 108, 88);"></circle><text dy=".35em" x="20" text-anchor="start" fill="#777" font-weight="700">19B</text></g><g class="node" transform="translate(180,314.2857142857143)"><circle class="node" r="15" cursor="pointer" style="fill: rgb(250, 139, 54); stroke: rgb(217, 120, 47);"></circle><text dy=".35em" x="-20" text-anchor="end" fill="#777" font-weight="700">20A</text></g><g class="node" transform="translate(360,110)"><circle class="node" r="15" cursor="pointer" style="fill: rgb(224, 152, 54); stroke: rgb(195, 132, 47);"></circle><text dy=".35em" x="-20" text-anchor="end" fill="#777" font-weight="700">20B</text></g><g class="node" transform="translate(360,298.57142857142856)"><circle class="node" r="15" cursor="pointer" style="fill: rgb(58, 185, 183); stroke: rgb(50, 160, 158);"></circle><text dy=".35em" x="-20" text-anchor="end" fill="#777" font-weight="700">20C</text></g><g class="node" transform="translate(360,361.4285714285714)"><circle class="node" r="15" cursor="pointer" style="fill: rgb(145, 160, 255); stroke: rgb(126, 139, 227);"></circle><text dy=".35em" x="20" text-anchor="start" fill="#777" font-weight="700">20E</text></g><g class="node" transform="translate(360,424.2857142857143)"><circle class="node" r="15" cursor="pointer" style="fill: rgb(185, 147, 255); stroke: rgb(160, 128, 227);"></circle><text dy=".35em" x="-20" text-anchor="end" fill="#777" font-weight="700">21A (Delta)</text></g><g class="node" transform="translate(360,455.71428571428567)"><circle class="node" r="15" cursor="pointer" style="fill: rgb(255, 105, 234); stroke: rgb(228, 91, 203);"></circle><text dy=".35em" x="20" text-anchor="start" fill="#777" font-weight="700">21B (Kappa)</text></g><g class="node" transform="translate(360,487.1428571428571)"><circle class="node" r="15" cursor="pointer" style="fill: rgb(255, 112, 206); stroke: rgb(229, 97, 179);"></circle><text dy=".35em" x="20" text-anchor="start" fill="#777" font-weight="700">21D (Eta)</text></g><g class="node" transform="translate(360,518.5714285714286)"><circle class="node" r="15" cursor="pointer" style="fill: rgb(255, 116, 179); stroke: rgb(229, 101, 156);"></circle><text dy=".35em" x="20" text-anchor="start" fill="#777" font-weight="700">21H (Mu)</text></g><g class="node" transform="translate(540,31.428571428571427)"><circle class="node" r="15" cursor="pointer" style="fill: rgb(204, 162, 54); stroke: rgb(177, 141, 47);"></circle><text dy=".35em" x="-20" text-anchor="end" fill="#777" font-weight="700">20D</text></g><g class="node" transform="translate(540,62.857142857142854)"><circle class="node" r="15" cursor="pointer" style="fill: rgb(168, 174, 53); stroke: rgb(145, 151, 46);"></circle><text dy=".35em" x="20" text-anchor="start" fill="#777" font-weight="700">20F</text></g><g class="node" transform="translate(540,94.28571428571428)"><circle class="node" r="15" cursor="pointer" style="fill: rgb(144, 180, 53); stroke: rgb(125, 156, 46);"></circle><text dy=".35em" x="20" text-anchor="start" fill="#777" font-weight="700">20I (Alpha)</text></g><g class="node" transform="translate(540,125.71428571428571)"><circle class="node" r="15" cursor="pointer" style="fill: rgb(106, 187, 53); stroke: rgb(92, 162, 46);"></circle><text dy=".35em" x="20" text-anchor="start" fill="#777" font-weight="700">20J (Gamma)</text></g><g class="node" transform="translate(540,157.14285714285714)"><circle class="node" r="15" cursor="pointer" style="fill: rgb(54, 191, 88); stroke: rgb(47, 166, 76);"></circle><text dy=".35em" x="20" text-anchor="start" fill="#777" font-weight="700">21E (Theta)</text></g><g class="node" transform="translate(540,188.57142857142856)"><circle class="node" r="15" cursor="pointer" style="fill: rgb(55, 189, 131); stroke: rgb(47, 164, 114);"></circle><text dy=".35em" x="-20" text-anchor="end" fill="#777" font-weight="700">21M (Omicron)</text></g><g class="node" transform="translate(540,251.42857142857142)"><circle class="node" r="15" cursor="pointer" style="fill: rgb(59, 184, 197); stroke: rgb(51, 159, 170);"></circle><text dy=".35em" x="20" text-anchor="start" fill="#777" font-weight="700">20G</text></g><g class="node" transform="translate(540,282.85714285714283)"><circle class="node" r="15" cursor="pointer" style="fill: rgb(60, 181, 212); stroke: rgb(52, 157, 183);"></circle><text dy=".35em" x="20" text-anchor="start" fill="#777" font-weight="700">20H (Beta)</text></g><g class="node" transform="translate(540,314.2857142857143)"><circle class="node" r="15" cursor="pointer" style="fill: rgb(62, 178, 233); stroke: rgb(54, 155, 202);"></circle><text dy=".35em" x="20" text-anchor="start" fill="#777" font-weight="700">21C (Epsilon)</text></g><g class="node" transform="translate(540,345.7142857142857)"><circle class="node" r="15" cursor="pointer" style="fill: rgb(79, 172, 255); stroke: rgb(69, 149, 227);"></circle><text dy=".35em" x="20" text-anchor="start" fill="#777" font-weight="700">21F (Iota)</text></g><g class="node" transform="translate(540,408.57142857142856)"><circle class="node" r="15" cursor="pointer" style="fill: rgb(219, 131, 255); stroke: rgb(190, 114, 227);"></circle><text dy=".35em" x="20" text-anchor="start" fill="#777" font-weight="700">21I (Delta)</text></g><g class="node" transform="translate(540,440)"><circle class="node" r="15" cursor="pointer" style="fill: rgb(255, 104, 255); stroke: rgb(222, 90, 227);"></circle><text dy=".35em" x="20" text-anchor="start" fill="#777" font-weight="700">21J (Delta)</text></g><g class="node" transform="translate(720,31.428571428571427)"><circle class="node" r="15" cursor="pointer" style="fill: rgb(187, 169, 53); stroke: rgb(162, 146, 46);"></circle><text dy=".35em" x="20" text-anchor="start" fill="#777" font-weight="700">21G (Lambda)</text></g><g class="node" transform="translate(720,172.85714285714286)"><circle class="node" r="15" cursor="pointer" style="fill: rgb(56, 188, 154); stroke: rgb(48, 163, 133);"></circle><text dy=".35em" x="20" text-anchor="start" fill="#777" font-weight="700">21K (Omicron)</text></g><g class="node" transform="translate(720,204.28571428571428)"><circle class="node" r="15" cursor="pointer" style="fill: rgb(57, 186, 170); stroke: rgb(49, 161, 147);"></circle><text dy=".35em" x="20" text-anchor="start" fill="#777" font-weight="700">21L (Omicron)</text></g></svg>